<?xml version="1.0" encoding="UTF-8"?>
<svg width="36px" height="28px" viewBox="0 0 36 28" version="1.1" xmlns="http://www.w3.org/2000/svg" xmlns:xlink="http://www.w3.org/1999/xlink">
    <defs>
        <linearGradient x1="50%" y1="0%" x2="50%" y2="100%" id="linearGradient-1">
            <stop stop-color="#D9D9D9" offset="0%"></stop>
            <stop stop-color="#FFFFFF" offset="100%"></stop>
        </linearGradient>
        <linearGradient x1="50%" y1="0%" x2="50%" y2="100%" id="linearGradient-2">
            <stop stop-color="#D9D9D9" offset="0%"></stop>
            <stop stop-color="#FFFFFF" offset="100%"></stop>
        </linearGradient>
    </defs>
    <g id="Page-1" stroke="none" stroke-width="1" fill="none" fill-rule="evenodd">
        <g id="Mobile" transform="translate(-205.000000, -85.000000)">
            <g id="DeviceRotateIcon_horizontal" transform="translate(209.000000, 89.000000)">
                <rect id="Device-Outline" stroke="#060606" stroke-width="3.5" x="-1.75" y="-1.75" width="31.5" height="23.5" rx="5"></rect>
                <g id="Arrow" transform="translate(14.047818, 9.795321) rotate(1.000000) translate(-14.047818, -9.795321) translate(8.758344, 3.596821)" stroke-linecap="round" stroke-width="1.5">
                    <line x1="4.206413e-12" y1="3.09812328" x2="3.5" y2="6.07492679" id="arrow-head-bottom" stroke="url(#linearGradient-1)"></line>
                    <line x1="-1.13686838e-13" y1="0" x2="3.5" y2="2.92507321" id="arrow-head-top" stroke="url(#linearGradient-1)" transform="translate(2.000000, 1.500000) scale(1, -1) translate(-2.000000, -1.500000) "></line>
                    <path d="M4.01961599,11.8434865 C6.78103974,11.8434865 9.01961599,9.60491028 9.01961599,6.84348653 C9.01961599,4.08206278 6.78103974,1.84348653 4.01961599,1.84348653" id="stem" stroke="url(#linearGradient-2)" transform="translate(6.519616, 6.843487) rotate(-20.000000) translate(-6.519616, -6.843487) "></path>
                </g>
            </g>
        </g>
    </g>
</svg>